HIERARCHY
ROOT Hips
{
	OFFSET 0.000000 100.481300 0.000000
	CHANNELS 6 Xposition Yposition Zposition Xrotation Yrotation Zrotation
	JOINT Spine
	{
		OFFSET -0.279200 12.230698 -2.892100
		CHANNELS 3 Xrotation Yrotation Zrotation
		JOINT Spine1
		{
			OFFSET -0.325700 14.269203 -3.374200
			CHANNELS 3 Xrotation Yrotation Zrotation
			JOINT Spine2
			{
				OFFSET -0.372300 16.307602 -0.352600
				CHANNELS 3 Xrotation Yrotation Zrotation
				JOINT Neck
				{
					OFFSET -0.418800 17.814194 8.416900
					CHANNELS 3 Xrotation Yrotation Zrotation
					JOINT Head
					{
						OFFSET 0.000000 7.031097 3.806800
						CHANNELS 3 Xrotation Yrotation Zrotation
						JOINT HeadTop_End
						{
							OFFSET 0.000000 24.646606 12.978600
							CHANNELS 3 Xrotation Yrotation Zrotation
							End Site
							{
								OFFSET 0.000000 27.854965 0.000000
							}
						}
					}
				}
				JOINT LeftShoulder
				{
					OFFSET 16.952999 14.495407 -7.737500
					CHANNELS 3 Xrotation Yrotation Zrotation
					JOINT LeftArm
					{
						OFFSET 9.308998 -2.777710 0.208600
						CHANNELS 3 Xrotation Yrotation Zrotation
						JOINT LeftForeArm
						{
							OFFSET 29.972298 0.000000 0.000000
							CHANNELS 3 Xrotation Yrotation Zrotation
							JOINT LeftHand
							{
								OFFSET 26.026505 0.000000 0.000000
								CHANNELS 3 Xrotation Yrotation Zrotation
								JOINT LeftHandThumb1
								{
									OFFSET 12.240501 -7.147949 9.207150
									CHANNELS 3 Xrotation Yrotation Zrotation
									JOINT LeftHandThumb2
									{
										OFFSET 4.138618 -2.389435 2.389433
										CHANNELS 3 Xrotation Yrotation Zrotation
										JOINT LeftHandThumb3
										{
											OFFSET 2.726913 -1.574387 1.574386
											CHANNELS 3 Xrotation Yrotation Zrotation
											JOINT LeftHandThumb4
											{
												OFFSET 3.941010 -2.275345 2.275342
												CHANNELS 3 Xrotation Yrotation Zrotation
												End Site
												{
													OFFSET -0.005798 5.087799 0.009903
												}
											}
										}
									}
								}
								JOINT LeftHandIndex1
								{
									OFFSET 24.424698 -1.985611 5.953459
									CHANNELS 3 Xrotation Yrotation Zrotation
									JOINT LeftHandIndex2
									{
										OFFSET 6.426697 0.000000 0.000000
										CHANNELS 3 Xrotation Yrotation Zrotation
										JOINT LeftHandIndex3
										{
											OFFSET 5.337898 0.000000 0.000000
											CHANNELS 3 Xrotation Yrotation Zrotation
											JOINT LeftHandIndex4
											{
												OFFSET 4.409401 0.000000 0.000000
												CHANNELS 3 Xrotation Yrotation Zrotation
												End Site
												{
													OFFSET 0.000000 4.409363 0.014373
												}
											}
										}
									}
								}
								JOINT LeftHandMiddle1
								{
									OFFSET 23.810104 0.000000 0.000000
									CHANNELS 3 Xrotation Yrotation Zrotation
									JOINT LeftHandMiddle2
									{
										OFFSET 7.176498 0.000000 0.000000
										CHANNELS 3 Xrotation Yrotation Zrotation
										JOINT LeftHandMiddle3
										{
											OFFSET 6.774902 0.000000 0.000000
											CHANNELS 3 Xrotation Yrotation Zrotation
											JOINT LeftHandMiddle4
											{
												OFFSET 5.403328 0.000000 0.000000
												CHANNELS 3 Xrotation Yrotation Zrotation
												End Site
												{
													OFFSET -0.027702 5.403244 0.017414
												}
											}
										}
									}
								}
								JOINT LeftHandRing1
								{
									OFFSET 22.908401 -0.839279 -6.020567
									CHANNELS 3 Xrotation Yrotation Zrotation
									JOINT LeftHandRing2
									{
										OFFSET 6.337502 0.000000 0.000000
										CHANNELS 3 Xrotation Yrotation Zrotation
										JOINT LeftHandRing3
										{
											OFFSET 5.779297 0.000000 0.000000
											CHANNELS 3 Xrotation Yrotation Zrotation
											JOINT LeftHandRing4
											{
												OFFSET 4.965698 0.000000 0.000000
												CHANNELS 3 Xrotation Yrotation Zrotation
												End Site
												{
													OFFSET 0.000000 4.965668 0.016186
												}
											}
										}
									}
								}
								JOINT LeftHandPinky1
								{
									OFFSET 20.037003 -1.530319 -10.950146
									CHANNELS 3 Xrotation Yrotation Zrotation
									JOINT LeftHandPinky2
									{
										OFFSET 5.254700 0.000000 0.000000
										CHANNELS 3 Xrotation Yrotation Zrotation
										JOINT LeftHandPinky3
										{
											OFFSET 4.810204 0.000000 0.000000
											CHANNELS 3 Xrotation Yrotation Zrotation
											JOINT LeftHandPinky4
											{
												OFFSET 3.647202 0.000000 0.000000
												CHANNELS 3 Xrotation Yrotation Zrotation
												End Site
												{
													OFFSET 0.000000 3.647186 0.011889
												}
											}
										}
									}
								}
							}
						}
					}
				}
				JOINT RightShoulder
				{
					OFFSET -15.141001 14.495407 -7.737500
					CHANNELS 3 Xrotation Yrotation Zrotation
					JOINT RightArm
					{
						OFFSET -9.308998 -2.777710 0.208500
						CHANNELS 3 Xrotation Yrotation Zrotation
						JOINT RightForeArm
						{
							OFFSET -29.972300 0.000000 0.000000
							CHANNELS 3 Xrotation Yrotation Zrotation
							JOINT RightHand
							{
								OFFSET -26.026505 0.000000 0.000000
								CHANNELS 3 Xrotation Yrotation Zrotation
								JOINT RightHandThumb1
								{
									OFFSET -12.240601 -7.148026 9.207092
									CHANNELS 3 Xrotation Yrotation Zrotation
									JOINT RightHandThumb2
									{
										OFFSET -4.138618 -2.389435 2.389433
										CHANNELS 3 Xrotation Yrotation Zrotation
										JOINT RightHandThumb3
										{
											OFFSET -2.726974 -1.574417 1.574421
											CHANNELS 3 Xrotation Yrotation Zrotation
											JOINT RightHandThumb4
											{
												OFFSET -3.941010 -2.275345 2.275343
												CHANNELS 3 Xrotation Yrotation Zrotation
												End Site
												{
													OFFSET 0.005814 5.087799 0.009927
												}
											}
										}
									}
								}
								JOINT RightHandIndex1
								{
									OFFSET -24.424698 -1.985657 5.953444
									CHANNELS 3 Xrotation Yrotation Zrotation
									JOINT RightHandIndex2
									{
										OFFSET -6.426697 0.000000 0.000000
										CHANNELS 3 Xrotation Yrotation Zrotation
										JOINT RightHandIndex3
										{
											OFFSET -5.337898 0.000000 0.000000
											CHANNELS 3 Xrotation Yrotation Zrotation
											JOINT RightHandIndex4
											{
												OFFSET -4.409401 0.000000 0.000000
												CHANNELS 3 Xrotation Yrotation Zrotation
												End Site
												{
													OFFSET 0.000000 4.409363 0.014408
												}
											}
										}
									}
								}
								JOINT RightHandMiddle1
								{
									OFFSET -23.810097 0.000000 0.000000
									CHANNELS 3 Xrotation Yrotation Zrotation
									JOINT RightHandMiddle2
									{
										OFFSET -7.176498 0.000000 0.000000
										CHANNELS 3 Xrotation Yrotation Zrotation
										JOINT RightHandMiddle3
										{
											OFFSET -6.774902 0.000000 0.000000
											CHANNELS 3 Xrotation Yrotation Zrotation
											JOINT RightHandMiddle4
											{
												OFFSET -5.403328 0.000000 0.000000
												CHANNELS 3 Xrotation Yrotation Zrotation
												End Site
												{
													OFFSET 0.027702 5.403244 0.017457
												}
											}
										}
									}
								}
								JOINT RightHandRing1
								{
									OFFSET -22.908302 -0.839325 -6.020576
									CHANNELS 3 Xrotation Yrotation Zrotation
									JOINT RightHandRing2
									{
										OFFSET -6.337502 0.000000 0.000000
										CHANNELS 3 Xrotation Yrotation Zrotation
										JOINT RightHandRing3
										{
											OFFSET -5.779297 0.000000 0.000000
											CHANNELS 3 Xrotation Yrotation Zrotation
											JOINT RightHandRing4
											{
												OFFSET -4.965698 0.000000 0.000000
												CHANNELS 3 Xrotation Yrotation Zrotation
												End Site
												{
													OFFSET 0.000000 4.965668 0.016226
												}
											}
										}
									}
								}
								JOINT RightHandPinky1
								{
									OFFSET -20.037003 -1.530334 -10.950259
									CHANNELS 3 Xrotation Yrotation Zrotation
									JOINT RightHandPinky2
									{
										OFFSET -5.254700 0.000000 0.000000
										CHANNELS 3 Xrotation Yrotation Zrotation
										JOINT RightHandPinky3
										{
											OFFSET -4.810204 0.000000 0.000000
											CHANNELS 3 Xrotation Yrotation Zrotation
											JOINT RightHandPinky4
											{
												OFFSET -3.647202 0.000000 0.000000
												CHANNELS 3 Xrotation Yrotation Zrotation
												End Site
												{
													OFFSET 0.000000 3.647186 0.011917
												}
											}
										}
									}
								}
							}
						}
					}
				}
			}
		}
	}
	JOINT LeftUpLeg
	{
		OFFSET 15.427100 -6.655098 0.678600
		CHANNELS 3 Xrotation Yrotation Zrotation
		JOINT LeftLeg
		{
			OFFSET 4.081073 -39.591068 13.024000
			CHANNELS 3 Xrotation Yrotation Zrotation
			JOINT LeftFoot
			{
				OFFSET -4.081074 -37.707932 -15.979700
				CHANNELS 3 Xrotation Yrotation Zrotation
				JOINT LeftToeBase
				{
					OFFSET 5.346399 -15.068900 20.645000
					CHANNELS 3 Xrotation Yrotation Zrotation
					JOINT LeftToe_End
					{
						OFFSET 2.754700 0.931300 11.300900
						CHANNELS 3 Xrotation Yrotation Zrotation
						End Site
						{
							OFFSET 0.000000 11.669021 0.000000
						}
					}
				}
			}
		}
	}
	JOINT RightUpLeg
	{
		OFFSET -15.569500 -6.655098 0.678600
		CHANNELS 3 Xrotation Yrotation Zrotation
		JOINT RightLeg
		{
			OFFSET -4.081825 -39.591045 13.023800
			CHANNELS 3 Xrotation Yrotation Zrotation
			JOINT RightFoot
			{
				OFFSET 4.081824 -37.707954 -15.979600
				CHANNELS 3 Xrotation Yrotation Zrotation
				JOINT RightToeBase
				{
					OFFSET -5.346400 -15.068900 20.645000
					CHANNELS 3 Xrotation Yrotation Zrotation
					JOINT RightToe_End
					{
						OFFSET -2.754700 0.931300 11.300900
						CHANNELS 3 Xrotation Yrotation Zrotation
						End Site
						{
							OFFSET 0.000000 11.669021 0.000000
						}
					}
				}
			}
		}
	}
}
MOTION
Frames: 4
Frame Time: 0.033333
2.195110 72.839005 -1.714689 -5.400173 -46.432077 -0.526812 9.420037 7.435533 -1.366544 2.187716 0.989899 -0.915631 2.202828 0.982773 -0.894152 0.084651 13.220553 4.538680 8.920927 20.138140 -4.130233 0.000000 0.000000 -0.000002 1.117177 3.546345 -8.633309 -53.487024 4.935497 -51.503004 -0.000056 -106.358087 -0.000053 1.988603 -7.706148 -15.869260 -6.141214 -11.690799 -6.761687 9.914100 42.595522 3.409888 -0.422813 8.108106 27.509103 0.000001 0.000004 -0.000003 0.255315 3.378218 -45.814341 5.654091 5.847760 -88.067455 2.162135 4.544808 -50.866369 -0.000000 0.000001 0.000002 -0.461466 3.841594 -39.722683 6.450752 5.820350 -95.892864 2.182884 4.561569 -51.127733 0.000000 -0.000001 0.000002 0.469730 4.966831 -39.799441 8.181043 5.368613 -113.503011 3.200490 5.218119 -63.022982 -0.000002 0.000002 -0.000000 -3.762428 9.063685 -45.253821 5.342542 5.829008 -85.005324 8.716833 5.103332 -119.369181 0.000002 0.000000 0.000000 3.036127 13.027203 -5.371410 -48.713701 27.172834 83.457057 0.000025 105.988294 -0.000040 -8.345366 17.548090 8.775667 -7.341111 13.749653 7.412336 9.855795 -44.489083 -3.903273 -0.115796 -14.513086 -28.973874 0.000002 0.000002 -0.000001 -0.124374 -2.384784 45.108857 4.500582 -4.654543 88.071150 1.723226 -3.618379 50.920105 -0.000002 -0.000000 -0.000002 -0.761627 -2.932903 39.031065 5.133884 -4.632765 95.881635 1.739744 -3.631697 51.181340 -0.000000 -0.000000 0.000005 0.154757 -4.068817 39.122671 6.509730 -4.273594 113.462877 2.549584 -4.153923 63.067337 0.000001 -0.000001 -0.000001 -4.198883 -8.025515 44.637772 4.252918 -4.639640 85.014825 6.935968 -4.062625 119.322298 0.000001 0.000000 0.000000 -34.255492 5.085949 20.300787 56.771682 -7.634027 3.672685 -20.133014 -7.078566 -17.222792 -1.594031 0.000007 -0.000000 -0.000000 -0.000002 -0.000000 -19.408602 -8.980183 -34.667622 57.008010 -2.876324 -4.766488 -26.306538 -10.338639 26.246269 -0.013009 0.000007 -0.000004 0.000000 -0.000000 0.000000 
2.395371 73.183472 -1.930964 -5.970542 -46.807611 -0.404538 9.052011 7.769156 -1.505121 3.108047 1.470551 -1.277161 3.120666 1.465225 -1.256417 0.715964 11.797530 3.526154 6.946657 19.497530 -3.829744 -0.000000 0.000000 -0.000001 0.867248 2.886962 -7.584784 -50.862120 3.516911 -53.765169 0.000065 -104.441871 0.000061 -0.590683 -3.269295 -15.380939 -6.141214 -11.690800 -6.761690 9.914101 42.595519 3.409890 -0.422812 8.108102 27.509108 -0.000001 -0.000002 0.000001 0.255313 3.378216 -45.814344 5.654086 5.847759 -88.067455 2.162140 4.544810 -50.866365 0.000003 -0.000001 -0.000003 -0.461466 3.841591 -39.722690 6.450750 5.820350 -95.892857 2.182883 4.561568 -51.127729 0.000000 0.000000 -0.000003 0.469731 4.966827 -39.799437 8.181043 5.368610 -113.503004 3.200489 5.218117 -63.022982 -0.000002 -0.000000 0.000001 -3.762429 9.063686 -45.253818 5.342540 5.829007 -85.005324 8.716832 5.103335 -119.369181 0.000002 -0.000000 -0.000000 3.921515 14.514750 -4.669073 -48.097772 26.973744 79.055458 0.000041 107.133471 -0.000032 -9.528007 17.024460 9.277914 -7.341111 13.749653 7.412340 9.855796 -44.489089 -3.903267 -0.115796 -14.513086 -28.973871 -0.000000 0.000004 0.000002 -0.124374 -2.384783 45.108857 4.500581 -4.654541 88.071150 1.723225 -3.618377 50.920102 0.000000 -0.000001 -0.000001 -0.761627 -2.932904 39.031065 5.133887 -4.632764 95.881635 1.739745 -3.631696 51.181336 -0.000001 0.000002 -0.000006 0.154758 -4.068818 39.122671 6.509737 -4.273599 113.462877 2.549580 -4.153925 63.067337 0.000001 0.000001 -0.000001 -4.198884 -8.025518 44.637772 4.252918 -4.639641 85.014818 6.935968 -4.062627 119.322298 -0.000002 0.000000 -0.000001 -33.273779 5.358300 19.688517 55.875336 -7.080642 3.618154 -19.722607 -7.017142 -17.472425 -1.594031 0.000010 -0.000000 -0.000000 0.000000 -0.000000 -19.493208 -8.542575 -35.070276 56.806342 -2.804955 -4.775656 -25.887517 -10.114325 26.015842 -0.013009 0.000008 -0.000003 -0.000000 -0.000000 0.000000 
2.579936 73.587242 -2.149484 -6.789164 -46.623267 0.793410 8.183392 9.760955 -2.162322 3.925682 2.775779 -1.968610 3.937569 2.772446 -1.945593 2.019293 9.384029 1.607329 7.363953 14.886616 -4.609731 0.000001 0.000000 -0.000000 0.790960 2.707451 -7.179595 -48.628768 -4.533244 -60.407306 -0.000785 -97.812428 -0.000778 -3.232020 2.658478 -14.666238 -6.141216 -11.690799 -6.761690 9.914096 42.595519 3.409881 -0.422817 8.108105 27.509106 0.000000 0.000001 -0.000001 0.255316 3.378215 -45.814344 5.654083 5.847761 -88.067455 2.162138 4.544810 -50.866369 -0.000003 -0.000000 0.000000 -0.461464 3.841592 -39.722686 6.450748 5.820352 -95.892857 2.182884 4.561571 -51.127729 0.000000 0.000000 0.000003 0.469732 4.966829 -39.799441 8.181038 5.368612 -113.503004 3.200489 5.218123 -63.022975 -0.000001 -0.000000 0.000001 -3.762428 9.063685 -45.253825 5.342534 5.829006 -85.005324 8.716833 5.103333 -119.369181 -0.000007 0.000000 -0.000001 4.885075 16.514875 -3.751856 -43.147524 23.616938 69.918912 0.000045 110.041041 -0.000040 -10.992704 16.619005 9.487377 -7.341110 13.749655 7.412340 9.855787 -44.489086 -3.903269 -0.115794 -14.513088 -28.973871 -0.000002 -0.000003 0.000002 -0.124374 -2.384784 45.108857 4.500578 -4.654542 88.071150 1.723225 -3.618375 50.920098 0.000000 -0.000003 -0.000002 -0.761628 -2.932906 39.031061 5.133886 -4.632764 95.881629 1.739746 -3.631696 51.181343 -0.000000 0.000001 0.000001 0.154757 -4.068818 39.122668 6.509735 -4.273597 113.462884 2.549580 -4.153921 63.067330 0.000001 0.000001 0.000002 -4.198881 -8.025513 44.637766 4.252923 -4.639641 85.014818 6.935967 -4.062622 119.322298 -0.000001 -0.000000 -0.000001 -31.673629 5.775265 17.598749 54.271703 -6.326969 3.250582 -18.885816 -7.113508 -17.557659 -1.594031 0.000008 -0.000000 0.000000 -0.000000 -0.000000 -18.814893 -7.357218 -36.498270 56.771040 -2.437380 -4.633941 -25.600427 -11.229155 25.906925 -0.013009 0.000008 -0.000004 0.000000 0.000000 -0.000000 
2.681454 74.160599 -1.844032 -8.813207 -45.552130 3.382390 5.837448 13.071099 -1.261175 4.227599 4.722713 -2.152494 4.240380 4.719799 -2.125393 3.808478 5.484680 -1.278123 13.492388 4.916412 -13.346117 -0.000001 -0.000000 0.000000 0.923283 3.167320 -7.507882 -46.252388 -18.086993 -73.033464 -0.000376 -82.310753 -0.000365 0.422840 10.345124 -13.750434 -6.141213 -11.690802 -6.761689 9.914097 42.595515 3.409897 -0.422814 8.108104 27.509104 0.000001 0.000000 -0.000000 0.255314 3.378215 -45.814348 5.654090 5.847762 -88.067448 2.162138 4.544813 -50.866365 0.000002 0.000001 -0.000005 -0.461467 3.841592 -39.722686 6.450746 5.820350 -95.892857 2.182883 4.561572 -51.127729 0.000002 -0.000004 0.000003 0.469728 4.966828 -39.799437 8.181039 5.368610 -113.503011 3.200492 5.218120 -63.022975 0.000003 0.000000 0.000000 -3.762428 9.063687 -45.253825 5.342540 5.829006 -85.005324 8.716832 5.103330 -119.369181 -0.000002 -0.000001 -0.000000 5.716844 17.266196 -2.498791 -36.705863 18.616538 57.693174 0.000053 111.853514 -0.000055 -13.697446 13.955199 12.634229 -7.341110 13.749653 7.412336 9.855793 -44.489083 -3.903274 -0.115791 -14.513086 -28.973874 0.000001 -0.000001 0.000001 -0.124372 -2.384785 45.108857 4.500580 -4.654541 88.071150 1.723225 -3.618378 50.920102 -0.000001 0.000000 -0.000003 -0.761625 -2.932904 39.031065 5.133884 -4.632764 95.881635 1.739746 -3.631695 51.181340 0.000001 -0.000004 0.000002 0.154760 -4.068818 39.122671 6.509733 -4.273597 113.462877 2.549582 -4.153922 63.067337 -0.000000 0.000000 -0.000002 -4.198880 -8.025517 44.637769 4.252916 -4.639640 85.014818 6.935969 -4.062623 119.322298 -0.000001 0.000000 0.000000 -28.305451 7.398085 12.894633 51.488401 -5.990562 2.440837 -17.568860 -7.580215 -16.581990 -1.594031 0.000007 -0.000000 0.000000 -0.000002 -0.000000 -15.430027 -5.160167 -39.947020 56.369585 -1.352246 -4.258351 -25.428123 -15.017950 26.312076 -0.013009 0.000006 -0.000003 0.000000 0.000001 -0.000000 
